<?xml version="1.0" encoding="utf-8"?>
<!-- Generator: Adobe Illustrator 22.1.0, SVG Export Plug-In . SVG Version: 6.00 Build 0)  -->
<svg version="1.1" id="Layer_1" xmlns="http://www.w3.org/2000/svg" xmlns:xlink="http://www.w3.org/1999/xlink" x="0px" y="0px"
	 viewBox="0 0 1402.9 12196.7" style="enable-background:new 0 0 1402.9 12196.7;" xml:space="preserve">
<style type="text/css">
	.st0{fill:#E8E8E8;}
	.st1{fill:#A2FFE2;}
	.st2{fill:none;stroke:#FFFF3A;stroke-width:16;stroke-miterlimit:10;}
</style>
<g>
	<polygon class="st1" points="1402.7,46.9 1402.8,46.9 1375.8,0 1348.8,46.6 1321.9,0 1295,46.6 1268.1,0 1241.2,46.6 1214.3,0 
		1187.4,46.6 1160.4,0 1133.5,46.6 1106.6,0 1079.7,46.6 1052.8,0 1025.9,46.6 999,0 972,46.6 945.1,0 918.2,46.6 891.3,0 
		864.4,46.6 837.5,0 810.5,46.6 783.6,0 756.7,46.6 729.8,0 702.7,46.8 675.8,0 648.8,46.6 621.9,0 595,46.6 568.1,0 541.2,46.6 
		514.3,0 487.4,46.6 460.4,0 433.5,46.6 406.6,0 379.7,46.6 352.8,0 325.9,46.6 299,0 272,46.6 245.1,0 218.2,46.6 191.3,0 
		164.4,46.6 137.5,0 110.5,46.6 83.6,0 56.7,46.6 29.8,0 2.7,46.9 2.7,12119.2 29.8,12166 56.7,12119.4 83.6,12166 110.5,12119.4 
		137.5,12166 164.4,12119.4 191.3,12166 218.2,12119.4 245.1,12166 272,12119.4 299,12166 325.9,12119.4 352.8,12166 379.7,12119.4 
		406.6,12166 433.5,12119.4 460.4,12166 487.4,12119.4 514.3,12166 541.2,12119.4 568.1,12166 595,12119.4 621.9,12166 
		648.8,12119.4 675.8,12166 702.7,12119.3 729.8,12166 756.7,12119.4 783.6,12166 810.5,12119.4 837.5,12166 864.4,12119.4 
		891.3,12166 918.2,12119.4 945.1,12166 972,12119.4 999,12166 1025.9,12119.4 1052.8,12166 1079.7,12119.4 1106.6,12166 
		1133.5,12119.4 1160.4,12166 1187.4,12119.4 1214.3,12166 1241.2,12119.4 1268.1,12166 1295,12119.4 1321.9,12166 1348.8,12119.4 
		1375.8,12166 1402.8,12119.2 1402.7,12119.2 	"/>
	<line class="st2" x1="2.9" y1="198.2" x2="1403" y2="198.2"/>
	<line class="st2" x1="2.9" y1="256.3" x2="1403" y2="256.3"/>
	<line class="st2" x1="2.9" y1="314.3" x2="1403" y2="314.3"/>
	<line class="st2" x1="2.9" y1="372.3" x2="1403" y2="372.3"/>
	<line class="st2" x1="2.9" y1="430.3" x2="1403" y2="430.3"/>
	<line class="st2" x1="2.5" y1="11782.6" x2="1402.6" y2="11782.6"/>
	<line class="st2" x1="2.5" y1="11840.7" x2="1402.6" y2="11840.7"/>
	<line class="st2" x1="2.5" y1="11898.7" x2="1402.6" y2="11898.7"/>
	<line class="st2" x1="2.5" y1="11956.7" x2="1402.6" y2="11956.7"/>
	<line class="st2" x1="2.4" y1="12014.4" x2="1402.5" y2="12014.4"/>
</g>
</svg>
