<?xml version="1.0" encoding="utf-8"?>
<!-- Generator: Adobe Illustrator 22.1.0, SVG Export Plug-In . SVG Version: 6.00 Build 0)  -->
<svg version="1.1" id="Layer_1" xmlns="http://www.w3.org/2000/svg" xmlns:xlink="http://www.w3.org/1999/xlink" x="0px" y="0px"
	 viewBox="0 0 1402.9 12196.7" style="enable-background:new 0 0 1402.9 12196.7;" xml:space="preserve">
<style type="text/css">
	.st0{fill:#E8E8E8;}
	.st1{fill:#A2FFE2;}
	.st2{fill:none;stroke:#FFFF3A;stroke-width:16;stroke-miterlimit:10;}
</style>
<polygon class="st0" points="1401.8,48.2 1401.9,48.2 1374.9,1.3 1347.9,47.9 1321,1.3 1294.1,47.9 1267.2,1.3 1240.3,47.9 
	1213.4,1.3 1186.5,47.9 1159.5,1.3 1132.6,47.9 1105.7,1.3 1078.8,47.9 1051.9,1.3 1025,47.9 998.1,1.3 971.1,47.9 944.2,1.3 
	917.3,47.9 890.4,1.3 863.5,47.9 836.6,1.3 809.6,47.9 782.7,1.3 755.8,47.9 728.9,1.3 701.8,48.1 674.9,1.3 647.9,47.9 621,1.3 
	594.1,47.9 567.2,1.3 540.3,47.9 513.4,1.3 486.5,47.9 459.5,1.3 432.6,47.9 405.7,1.3 378.8,47.9 351.9,1.3 325,47.9 298.1,1.3 
	271.1,47.9 244.2,1.3 217.3,47.9 190.4,1.3 163.5,47.9 136.6,1.3 109.6,47.9 82.7,1.3 55.8,47.9 28.9,1.3 1.8,48.2 1.8,12120.5 
	28.9,12167.3 55.8,12120.7 82.7,12167.3 109.6,12120.7 136.6,12167.3 163.5,12120.7 190.4,12167.3 217.3,12120.7 244.2,12167.3 
	271.1,12120.7 298.1,12167.3 325,12120.7 351.9,12167.3 378.8,12120.7 405.7,12167.3 432.6,12120.7 459.5,12167.3 486.5,12120.7 
	513.4,12167.3 540.3,12120.7 567.2,12167.3 594.1,12120.7 621,12167.3 647.9,12120.7 674.9,12167.3 701.8,12120.6 728.9,12167.3 
	755.8,12120.7 782.7,12167.3 809.6,12120.7 836.6,12167.3 863.5,12120.7 890.4,12167.3 917.3,12120.7 944.2,12167.3 971.1,12120.7 
	998.1,12167.3 1025,12120.7 1051.9,12167.3 1078.8,12120.7 1105.7,12167.3 1132.6,12120.7 1159.5,12167.3 1186.5,12120.7 
	1213.4,12167.3 1240.3,12120.7 1267.2,12167.3 1294.1,12120.7 1321,12167.3 1347.9,12120.7 1374.9,12167.3 1401.9,12120.5 
	1401.8,12120.5 "/>
</svg>
